<?xml version="1.0" encoding="UTF-8"?>
<!DOCTYPE svg PUBLIC "-//W3C//DTD SVG 1.1//EN" "http://www.w3.org/Graphics/SVG/1.1/DTD/svg11.dtd">
<svg xmlns="http://www.w3.org/2000/svg" version="1.1" width="500px" height="500px" style="shape-rendering:geometricPrecision; text-rendering:geometricPrecision; image-rendering:optimizeQuality; fill-rule:evenodd; clip-rule:evenodd" xmlns:xlink="http://www.w3.org/1999/xlink">
<g><path style="opacity:0.951" fill="#fefefe" d="M 88.5,63.5 C 95.6356,64.8308 103.136,65.4975 111,65.5C 118.864,65.4975 126.364,64.8308 133.5,63.5C 136.631,62.9078 138.964,63.9078 140.5,66.5C 139.167,144.833 139.167,223.167 140.5,301.5C 156.8,303.485 173.466,304.152 190.5,303.5C 188.573,284.55 188.073,265.55 189,246.5C 189.5,246 190,245.5 190.5,245C 209.5,244.333 228.5,244.333 247.5,245C 248.126,245.75 248.626,246.584 249,247.5C 249.333,262.5 249.667,277.5 250,292.5C 252.755,301.334 258.588,304.168 267.5,301C 269.049,299.786 270.215,298.286 271,296.5C 274.369,279.435 271.702,263.435 263,248.5C 246.029,230.528 228.696,212.862 211,195.5C 186.853,165.606 181.853,132.606 196,96.5C 206.171,76.0066 222.671,64.5066 245.5,62C 301.797,57.1292 330.464,82.9625 331.5,139.5C 331.482,143.084 331.148,146.584 330.5,150C 310.5,150.667 290.5,150.667 270.5,150C 268.887,141.298 268.054,132.464 268,123.5C 267.167,121.333 265.667,119.833 263.5,119C 253.24,116.328 247.906,120.161 247.5,130.5C 247.636,136.708 249.469,142.375 253,147.5C 272.64,167.14 292.306,186.806 312,206.5C 323.674,221.509 330.674,238.509 333,257.5C 335.227,279.792 332.56,301.459 325,322.5C 315.365,345.114 298.199,357.281 273.5,359C 257.41,360.286 241.744,358.286 226.5,353C 215.221,348.616 206.721,341.116 201,330.5C 200.667,338.5 200.333,346.5 200,354.5C 199.5,355 199,355.5 198.5,356C 159.167,356.667 119.833,356.667 80.5,356C 79.3348,259.237 79.1682,162.403 80,65.5C 82.5645,63.8207 85.3979,63.154 88.5,63.5 Z"/></g>
<g><path style="opacity:0.059" fill="#757575" d="M 88.5,63.5 C 103.5,63.5 118.5,63.5 133.5,63.5C 126.364,64.8308 118.864,65.4975 111,65.5C 103.136,65.4975 95.6356,64.8308 88.5,63.5 Z"/></g>
<g><path style="opacity:0.035" fill="#c6c6c6" d="M 140.5,66.5 C 140.51,144.656 140.51,222.989 140.5,301.5C 139.167,223.167 139.167,144.833 140.5,66.5 Z"/></g>
<g><path style="opacity:1" fill="#fd3231" d="M 371.5,310.5 C 391.845,310.085 407.345,318.419 418,335.5C 428.577,361.035 422.743,381.869 400.5,398C 370.855,410.231 348.355,402.398 333,374.5C 325.567,348.113 333.733,328.28 357.5,315C 362.127,312.956 366.794,311.456 371.5,310.5 Z"/></g>
</svg>
